<svg width="496" height="497" viewBox="0 0 496 497" fill="none" xmlns="http://www.w3.org/2000/svg">
<path d="M193.026 278.537L247.092 184.473L301.159 278.537H193.026Z" stroke="#EB0028" stroke-opacity="0.81" stroke-width="3"/>
<path d="M361.437 182.671L247.676 380.567L133.916 182.671L361.437 182.671Z" stroke="#EB0028" stroke-opacity="0.68" stroke-width="3"/>
<path d="M362.529 315.244L247.676 381.843L132.823 315.244L132.823 182.035L247.676 115.437L362.529 182.035L362.529 315.244Z" stroke="#950B0B" stroke-width="3"/>
<path d="M170.187 382.386L92.5741 248.5L170.187 114.614L325.425 114.614L403.038 248.5L325.425 382.386L170.187 382.386Z" stroke="#950B0B" stroke-width="3"/>
<path d="M92.2872 337.919L91.9717 158.529L247.486 69.107L403.325 159.081L403.641 338.471L248.126 427.893L92.2872 337.919Z" stroke="#630000" stroke-width="3"/>
<path d="M67.8672 248.179L91.8154 158.439L157.559 92.8288L247.485 68.9285L337.5 93.1456L403.48 158.992L427.745 248.821L403.797 338.561L338.054 404.171L248.127 428.072L158.112 403.855L92.1322 338.008L67.8672 248.179Z" stroke="#630000" stroke-width="3"/>
<path d="M65.4076 297.026L65.3087 199.6L114.107 115.276L198.731 66.6469L296.508 66.7459L381.234 115.548L430.206 199.974L430.305 297.4L381.507 381.724L296.882 430.353L199.106 430.254L114.38 381.452L65.4076 297.026Z" stroke="#4E0404" stroke-width="3"/>
<path d="M55.971 248.303L62.457 198.835L81.5735 152.753L112.018 113.194L151.717 82.8557L197.965 63.8052L247.61 57.3416L297.269 63.9058L343.557 83.0506L383.319 113.471L413.846 153.093L433.057 199.216L439.643 248.697L433.157 298.164L414.041 344.247L383.596 383.806L343.897 414.144L297.65 433.195L248.004 439.658L198.345 433.094L152.057 413.949L112.295 383.529L81.7685 343.907L62.5576 297.784L55.971 248.303Z" stroke="#4E0404" stroke-width="3"/>
</svg>
